<svg xmlns="http://www.w3.org/2000/svg" xmlns:xlink="http://www.w3.org/1999/xlink" width="500" zoomAndPan="magnify" viewBox="0 0 375 374.999991" height="500" preserveAspectRatio="xMidYMid meet" version="1.0"><defs><g/><clipPath id="6a777cbafa"><path d="M 124.339844 46.523438 L 250.339844 46.523438 L 250.339844 243 L 124.339844 243 Z M 124.339844 46.523438 " clip-rule="nonzero"/></clipPath></defs><g clip-path="url(#6a777cbafa)"><path fill="#e96401" d="M 187.5 240.953125 L 250.65625 177.949219 L 250.65625 145.597656 L 187.5 208.910156 L 142.453125 163.863281 L 124.339844 181.972656 L 124.339844 242.964844 L 151.894531 242.964844 L 151.894531 205.503906 Z M 187.5 48.535156 L 124.339844 111.695312 L 124.339844 143.894531 L 187.5 80.734375 L 232.546875 125.78125 L 250.65625 107.824219 L 250.65625 46.523438 L 223.101562 46.523438 L 223.101562 84.140625 Z M 187.5 48.535156 " fill-opacity="1" fill-rule="evenodd"/></g><path fill="#e96401" d="M 170.007812 127.328125 L 184.402344 127.328125 L 184.402344 141.726562 L 170.007812 141.726562 Z M 184.402344 147.761719 L 184.402344 162.316406 L 170.007812 162.316406 L 170.007812 147.761719 Z M 190.59375 127.328125 L 204.992188 127.328125 L 204.992188 141.726562 L 190.59375 141.726562 Z M 204.992188 147.761719 L 204.992188 162.316406 L 190.59375 162.316406 L 190.59375 147.761719 Z M 204.992188 147.761719 " fill-opacity="1" fill-rule="evenodd"/><g fill="#FFFFFF" fill-opacity="1"><g transform="translate(104.101689, 280.822306)"><g><path d="M 10.46875 -21.78125 L 15.015625 -21.78125 L 10.5 0 L 5.078125 0 L 0.578125 -21.78125 L 5.15625 -21.78125 L 7.8125 -5.890625 Z M 10.46875 -21.78125 "/></g></g></g><g fill="#FFFFFF" fill-opacity="1"><g transform="translate(122.889616, 280.822306)"><g><path d="M 10.34375 -22.125 C 13.125 -22.125 14.515625 -20.640625 14.515625 -17.671875 L 14.515625 0 L 9.796875 0 L 9.796875 -7.3125 L 6.390625 -7.3125 L 6.390625 0 L 1.6875 0 L 1.6875 -17.671875 C 1.6875 -20.640625 3.078125 -22.125 5.859375 -22.125 Z M 6.390625 -10.9375 L 9.796875 -10.9375 L 9.796875 -18.25 C 9.796875 -18.425781 9.734375 -18.582031 9.609375 -18.71875 C 9.484375 -18.851562 9.332031 -18.921875 9.15625 -18.921875 L 7.03125 -18.921875 C 6.851562 -18.921875 6.703125 -18.851562 6.578125 -18.71875 C 6.453125 -18.582031 6.390625 -18.425781 6.390625 -18.25 Z M 6.390625 -10.9375 "/></g></g></g><g fill="#FFFFFF" fill-opacity="1"><g transform="translate(142.350902, 280.822306)"><g><path d="M 14.171875 0 L 9.46875 0 L 9.46875 -18.078125 C 9.46875 -18.253906 9.40625 -18.410156 9.28125 -18.546875 C 9.15625 -18.679688 9.003906 -18.75 8.828125 -18.75 L 7 -18.75 C 6.820312 -18.75 6.671875 -18.679688 6.546875 -18.546875 C 6.421875 -18.410156 6.359375 -18.253906 6.359375 -18.078125 L 6.359375 0 L 1.65625 0 L 1.65625 -17.671875 C 1.65625 -20.640625 3.046875 -22.125 5.828125 -22.125 L 10 -22.125 C 12.78125 -22.125 14.171875 -20.640625 14.171875 -17.671875 Z M 14.171875 0 "/></g></g></g><g fill="#FFFFFF" fill-opacity="1"><g transform="translate(161.138832, 280.822306)"><g/></g></g><g fill="#FFFFFF" fill-opacity="1"><g transform="translate(171.072086, 280.822306)"><g><path d="M 15.25 -21.78125 L 11.546875 -11.78125 L 15.953125 0 L 11.140625 0 L 7.90625 -8.625 L 6.390625 -8.625 L 6.390625 0 L 1.6875 0 L 1.6875 -21.78125 L 6.390625 -21.78125 L 6.390625 -12.65625 L 7.546875 -12.65625 L 10.9375 -21.78125 Z M 15.25 -21.78125 "/></g></g></g><g fill="#FFFFFF" fill-opacity="1"><g transform="translate(190.09569, 280.822306)"><g><path d="M 6.390625 -3.90625 L 11.609375 -3.90625 L 11.609375 0 L 1.6875 0 L 1.6875 -21.78125 L 11.609375 -21.78125 L 11.609375 -17.953125 L 6.390625 -17.953125 L 6.390625 -12.828125 L 11.28125 -12.828125 L 11.28125 -9.125 L 6.390625 -9.125 Z M 6.390625 -3.90625 "/></g></g></g><g fill="#FFFFFF" fill-opacity="1"><g transform="translate(205.887162, 280.822306)"><g><path d="M 13.765625 -16.0625 L 9.296875 -16.0625 L 9.296875 -17.78125 C 9.296875 -17.957031 9.234375 -18.113281 9.109375 -18.25 C 8.984375 -18.382812 8.832031 -18.453125 8.65625 -18.453125 L 6.796875 -18.453125 C 6.617188 -18.453125 6.46875 -18.382812 6.34375 -18.25 C 6.21875 -18.113281 6.15625 -17.957031 6.15625 -17.78125 L 6.15625 -13.90625 C 6.15625 -13.726562 6.21875 -13.570312 6.34375 -13.4375 C 6.46875 -13.300781 6.617188 -13.234375 6.796875 -13.234375 L 9.828125 -13.234375 C 12.609375 -13.191406 14 -11.707031 14 -8.78125 L 14 -4.109375 C 14 -1.140625 12.609375 0.34375 9.828125 0.34375 L 5.859375 0.34375 C 3.078125 0.34375 1.6875 -1.140625 1.6875 -4.109375 L 1.6875 -6.359375 L 6.15625 -6.359375 L 6.15625 -3.9375 C 6.15625 -3.757812 6.21875 -3.601562 6.34375 -3.46875 C 6.46875 -3.332031 6.617188 -3.265625 6.796875 -3.265625 L 8.890625 -3.265625 C 9.066406 -3.265625 9.21875 -3.332031 9.34375 -3.46875 C 9.46875 -3.601562 9.53125 -3.757812 9.53125 -3.9375 L 9.53125 -8.21875 C 9.53125 -8.394531 9.46875 -8.550781 9.34375 -8.6875 C 9.21875 -8.820312 9.066406 -8.890625 8.890625 -8.890625 L 5.859375 -8.890625 C 3.078125 -8.890625 1.6875 -10.367188 1.6875 -13.328125 L 1.6875 -17.671875 C 1.6875 -20.640625 3.078125 -22.125 5.859375 -22.125 L 9.59375 -22.125 C 12.375 -22.125 13.765625 -20.640625 13.765625 -17.671875 Z M 13.765625 -16.0625 "/></g></g></g><g fill="#FFFFFF" fill-opacity="1"><g transform="translate(224.439418, 280.822306)"><g><path d="M 13.765625 -16.0625 L 9.296875 -16.0625 L 9.296875 -17.78125 C 9.296875 -17.957031 9.234375 -18.113281 9.109375 -18.25 C 8.984375 -18.382812 8.832031 -18.453125 8.65625 -18.453125 L 6.796875 -18.453125 C 6.617188 -18.453125 6.46875 -18.382812 6.34375 -18.25 C 6.21875 -18.113281 6.15625 -17.957031 6.15625 -17.78125 L 6.15625 -13.90625 C 6.15625 -13.726562 6.21875 -13.570312 6.34375 -13.4375 C 6.46875 -13.300781 6.617188 -13.234375 6.796875 -13.234375 L 9.828125 -13.234375 C 12.609375 -13.191406 14 -11.707031 14 -8.78125 L 14 -4.109375 C 14 -1.140625 12.609375 0.34375 9.828125 0.34375 L 5.859375 0.34375 C 3.078125 0.34375 1.6875 -1.140625 1.6875 -4.109375 L 1.6875 -6.359375 L 6.15625 -6.359375 L 6.15625 -3.9375 C 6.15625 -3.757812 6.21875 -3.601562 6.34375 -3.46875 C 6.46875 -3.332031 6.617188 -3.265625 6.796875 -3.265625 L 8.890625 -3.265625 C 9.066406 -3.265625 9.21875 -3.332031 9.34375 -3.46875 C 9.46875 -3.601562 9.53125 -3.757812 9.53125 -3.9375 L 9.53125 -8.21875 C 9.53125 -8.394531 9.46875 -8.550781 9.34375 -8.6875 C 9.21875 -8.820312 9.066406 -8.890625 8.890625 -8.890625 L 5.859375 -8.890625 C 3.078125 -8.890625 1.6875 -10.367188 1.6875 -13.328125 L 1.6875 -17.671875 C 1.6875 -20.640625 3.078125 -22.125 5.859375 -22.125 L 9.59375 -22.125 C 12.375 -22.125 13.765625 -20.640625 13.765625 -17.671875 Z M 13.765625 -16.0625 "/></g></g></g><g fill="#FFFFFF" fill-opacity="1"><g transform="translate(242.991674, 280.822306)"><g><path d="M 6.390625 -3.90625 L 11.609375 -3.90625 L 11.609375 0 L 1.6875 0 L 1.6875 -21.78125 L 11.609375 -21.78125 L 11.609375 -17.953125 L 6.390625 -17.953125 L 6.390625 -12.828125 L 11.28125 -12.828125 L 11.28125 -9.125 L 6.390625 -9.125 Z M 6.390625 -3.90625 "/></g></g></g><g fill="#FFFFFF" fill-opacity="1"><g transform="translate(258.783147, 280.822306)"><g><path d="M 6.390625 -3.96875 L 11.546875 -3.96875 L 11.546875 0 L 1.6875 0 L 1.6875 -21.78125 L 6.390625 -21.78125 Z M 6.390625 -3.96875 "/></g></g></g><g fill="#FFFFFF" fill-opacity="1"><g transform="translate(153.834362, 306.180911)"><g><path d="M 0.765625 0 L 0.765625 -8.859375 L 2.6875 -8.859375 L 2.6875 -3.984375 L 4.59375 -6.484375 L 6.859375 -6.484375 L 4.546875 -3.59375 L 7.078125 0 L 4.875 0 L 3.09375 -2.671875 L 2.6875 -2.3125 L 2.6875 0 Z M 0.765625 0 "/></g></g></g><g fill="#FFFFFF" fill-opacity="1"><g transform="translate(163.622034, 306.180911)"><g><path d="M 3.625 0.125 C 3.257812 0.125 2.890625 0.0546875 2.515625 -0.078125 C 2.140625 -0.210938 1.796875 -0.414062 1.484375 -0.6875 C 1.171875 -0.957031 0.921875 -1.304688 0.734375 -1.734375 C 0.554688 -2.160156 0.46875 -2.660156 0.46875 -3.234375 C 0.46875 -3.835938 0.5625 -4.351562 0.75 -4.78125 C 0.9375 -5.207031 1.1875 -5.554688 1.5 -5.828125 C 1.8125 -6.097656 2.148438 -6.296875 2.515625 -6.421875 C 2.890625 -6.546875 3.257812 -6.609375 3.625 -6.609375 C 4.019531 -6.609375 4.40625 -6.546875 4.78125 -6.421875 C 5.15625 -6.296875 5.5 -6.097656 5.8125 -5.828125 C 6.125 -5.554688 6.367188 -5.207031 6.546875 -4.78125 C 6.734375 -4.351562 6.828125 -3.835938 6.828125 -3.234375 C 6.828125 -2.660156 6.734375 -2.160156 6.546875 -1.734375 C 6.359375 -1.304688 6.109375 -0.957031 5.796875 -0.6875 C 5.484375 -0.414062 5.140625 -0.210938 4.765625 -0.078125 C 4.390625 0.0546875 4.007812 0.125 3.625 0.125 Z M 3.625 -1.421875 C 3.851562 -1.421875 4.070312 -1.488281 4.28125 -1.625 C 4.488281 -1.757812 4.660156 -1.960938 4.796875 -2.234375 C 4.929688 -2.503906 5 -2.835938 5 -3.234375 C 5 -3.828125 4.859375 -4.28125 4.578125 -4.59375 C 4.304688 -4.90625 3.988281 -5.0625 3.625 -5.0625 C 3.28125 -5.0625 2.96875 -4.90625 2.6875 -4.59375 C 2.40625 -4.289062 2.265625 -3.835938 2.265625 -3.234375 C 2.265625 -2.648438 2.40625 -2.203125 2.6875 -1.890625 C 2.96875 -1.578125 3.28125 -1.421875 3.625 -1.421875 Z M 3.625 -1.421875 "/></g></g></g><g fill="#000000" fill-opacity="1"><g transform="translate(173.482562, 306.180911)"><g><path d="M 0.46875 0 L 0.46875 -1.265625 L 3.265625 -4.953125 L 0.5625 -4.953125 L 0.5625 -6.484375 L 5.390625 -6.484375 L 5.390625 -5.1875 L 2.671875 -1.546875 L 5.46875 -1.546875 L 5.46875 0 Z M 0.46875 0 "/></g></g></g><g fill="#FFFFFF" fill-opacity="1"><g transform="translate(182.007415, 306.180911)"><g><path d="M 1.6875 -7.453125 C 1.363281 -7.453125 1.101562 -7.53125 0.90625 -7.6875 C 0.71875 -7.84375 0.625 -8.082031 0.625 -8.40625 C 0.625 -8.738281 0.71875 -8.976562 0.90625 -9.125 C 1.101562 -9.269531 1.363281 -9.34375 1.6875 -9.34375 C 2.007812 -9.34375 2.265625 -9.269531 2.453125 -9.125 C 2.648438 -8.976562 2.75 -8.738281 2.75 -8.40625 C 2.75 -8.082031 2.648438 -7.84375 2.453125 -7.6875 C 2.265625 -7.53125 2.007812 -7.453125 1.6875 -7.453125 Z M 0.75 0 L 0.75 -6.484375 L 2.625 -6.484375 L 2.625 0 Z M 0.75 0 "/></g></g></g><g fill="#FFFFFF" fill-opacity="1"><g transform="translate(187.958045, 306.180911)"><g><path d="M 2.078125 -7.453125 C 1.753906 -7.453125 1.492188 -7.53125 1.296875 -7.6875 C 1.109375 -7.84375 1.015625 -8.082031 1.015625 -8.40625 C 1.015625 -8.738281 1.109375 -8.976562 1.296875 -9.125 C 1.492188 -9.269531 1.753906 -9.34375 2.078125 -9.34375 C 2.398438 -9.34375 2.65625 -9.269531 2.84375 -9.125 C 3.03125 -8.976562 3.125 -8.738281 3.125 -8.40625 C 3.125 -8.082031 3.03125 -7.84375 2.84375 -7.6875 C 2.65625 -7.53125 2.398438 -7.453125 2.078125 -7.453125 Z M 0.09375 2.796875 L 0.09375 1.03125 C 0.4375 0.988281 0.691406 0.898438 0.859375 0.765625 C 1.023438 0.628906 1.109375 0.382812 1.109375 0.03125 L 1.109375 -6.484375 L 3.078125 -6.484375 L 3.078125 0.078125 C 3.078125 0.679688 2.929688 1.191406 2.640625 1.609375 C 2.359375 2.023438 1.992188 2.332031 1.546875 2.53125 C 1.097656 2.738281 0.613281 2.828125 0.09375 2.796875 Z M 0.09375 2.796875 "/></g></g></g><g fill="#FFFFFF" fill-opacity="1"><g transform="translate(194.442947, 306.180911)"><g><path d="M 0.765625 0 L 0.765625 -6.484375 L 2.1875 -6.484375 L 2.40625 -5.8125 C 2.488281 -5.957031 2.628906 -6.09375 2.828125 -6.21875 C 3.023438 -6.351562 3.25 -6.457031 3.5 -6.53125 C 3.75 -6.613281 4.003906 -6.65625 4.265625 -6.65625 C 4.679688 -6.65625 5.066406 -6.566406 5.421875 -6.390625 C 5.785156 -6.210938 6.078125 -5.925781 6.296875 -5.53125 C 6.523438 -5.132812 6.640625 -4.617188 6.640625 -3.984375 L 6.640625 0 L 4.765625 0 L 4.765625 -3.890625 C 4.765625 -4.285156 4.664062 -4.585938 4.46875 -4.796875 C 4.269531 -5.003906 4.019531 -5.109375 3.71875 -5.109375 C 3.40625 -5.109375 3.144531 -5 2.9375 -4.78125 C 2.738281 -4.5625 2.640625 -4.265625 2.640625 -3.890625 L 2.640625 0 Z M 0.765625 0 "/></g></g></g><g fill="#FFFFFF" fill-opacity="1"><g transform="translate(204.291329, 306.180911)"><g><path d="M 3.6875 0.125 C 3.125 0.125 2.597656 0.00390625 2.109375 -0.234375 C 1.628906 -0.472656 1.238281 -0.835938 0.9375 -1.328125 C 0.632812 -1.828125 0.484375 -2.453125 0.484375 -3.203125 C 0.484375 -3.953125 0.625 -4.578125 0.90625 -5.078125 C 1.1875 -5.578125 1.5625 -5.957031 2.03125 -6.21875 C 2.5 -6.476562 3 -6.609375 3.53125 -6.609375 C 4.070312 -6.609375 4.570312 -6.492188 5.03125 -6.265625 C 5.488281 -6.035156 5.851562 -5.6875 6.125 -5.21875 C 6.40625 -4.75 6.546875 -4.144531 6.546875 -3.40625 L 6.546875 -2.6875 L 2.25 -2.6875 C 2.269531 -2.25 2.429688 -1.914062 2.734375 -1.6875 C 3.035156 -1.457031 3.382812 -1.34375 3.78125 -1.34375 C 4.132812 -1.34375 4.429688 -1.421875 4.671875 -1.578125 C 4.910156 -1.742188 5.125 -1.929688 5.3125 -2.140625 L 6.46875 -1.21875 C 6.195312 -0.882812 5.921875 -0.617188 5.640625 -0.421875 C 5.367188 -0.234375 5.078125 -0.09375 4.765625 0 C 4.453125 0.0820312 4.09375 0.125 3.6875 0.125 Z M 2.25 -3.890625 L 4.78125 -3.890625 C 4.78125 -4.316406 4.660156 -4.640625 4.421875 -4.859375 C 4.179688 -5.085938 3.878906 -5.203125 3.515625 -5.203125 C 3.171875 -5.203125 2.878906 -5.082031 2.640625 -4.84375 C 2.398438 -4.601562 2.269531 -4.285156 2.25 -3.890625 Z M 2.25 -3.890625 "/></g></g></g><g fill="#FFFFFF" fill-opacity="1"><g transform="translate(213.88472, 306.180911)"><g><path d="M 0.765625 0 L 0.765625 -6.484375 L 2.1875 -6.484375 L 2.40625 -5.8125 C 2.488281 -5.957031 2.628906 -6.09375 2.828125 -6.21875 C 3.023438 -6.351562 3.25 -6.457031 3.5 -6.53125 C 3.75 -6.613281 4.003906 -6.65625 4.265625 -6.65625 C 4.679688 -6.65625 5.066406 -6.566406 5.421875 -6.390625 C 5.785156 -6.210938 6.078125 -5.925781 6.296875 -5.53125 C 6.523438 -5.132812 6.640625 -4.617188 6.640625 -3.984375 L 6.640625 0 L 4.765625 0 L 4.765625 -3.890625 C 4.765625 -4.285156 4.664062 -4.585938 4.46875 -4.796875 C 4.269531 -5.003906 4.019531 -5.109375 3.71875 -5.109375 C 3.40625 -5.109375 3.144531 -5 2.9375 -4.78125 C 2.738281 -4.5625 2.640625 -4.265625 2.640625 -3.890625 L 2.640625 0 Z M 0.765625 0 "/></g></g></g></svg>